<svg width="14" height="14" viewBox="0 0 14 14" fill="none" xmlns="http://www.w3.org/2000/svg">
<path fill-rule="evenodd" clip-rule="evenodd" d="M3.73129 1.5C3.53238 1.5 3.34161 1.42098 3.20096 1.28033C3.06031 1.13968 2.98129 0.948912 2.98129 0.75C2.98129 0.551088 3.06031 0.360322 3.20096 0.21967C3.34161 0.0790175 3.53238 0 3.73129 0H12.7313C12.9302 0 13.121 0.0790175 13.2616 0.21967C13.4023 0.360322 13.4813 0.551088 13.4813 0.75V9.75C13.4813 9.94891 13.4023 10.1397 13.2616 10.2803C13.121 10.421 12.9302 10.5 12.7313 10.5C12.5324 10.5 12.3416 10.421 12.201 10.2803C12.0603 10.1397 11.9813 9.94891 11.9813 9.75V2.56L1.26129 13.28C1.11912 13.4125 0.93107 13.4846 0.736769 13.4812C0.542468 13.4777 0.357083 13.399 0.21967 13.2616C0.0822568 13.1242 0.00354506 12.9388 0.000116847 12.7445C-0.00331137 12.5502 0.0688116 12.3622 0.201292 12.22L10.9213 1.5H3.73129Z" fill="#E4543C "/>
</svg>
