<svg width="21" height="21" viewBox="0 0 21 21" fill="none" xmlns="http://www.w3.org/2000/svg">
<path fill-rule="evenodd" clip-rule="evenodd" d="M11.0417 15.0625C12.1669 14.9111 13.1989 14.3565 13.946 13.5017C14.6932 12.6469 15.1047 11.5499 15.1042 10.4146V8.85417H13.8542V10.4146C13.8542 11.3263 13.492 12.2006 12.8473 12.8453C12.2027 13.4899 11.3283 13.8521 10.4167 13.8521C9.50498 13.8521 8.63064 13.4899 7.98599 12.8453C7.34133 12.2006 6.97917 11.3263 6.97917 10.4146V8.85417H5.72917V10.4146C5.72862 11.5499 6.14014 12.6469 6.8873 13.5017C7.63446 14.3565 8.66647 14.9111 9.79167 15.0625V16.6667H11.0417V15.0625ZM10.4167 20.8333C4.66354 20.8333 0 16.1698 0 10.4167C0 4.66354 4.66354 0 10.4167 0C16.1698 0 20.8333 4.66354 20.8333 10.4167C20.8333 16.1698 16.1698 20.8333 10.4167 20.8333ZM10.4167 4.6875C9.86413 4.6875 9.33423 4.90699 8.94353 5.29769C8.55283 5.68839 8.33333 6.2183 8.33333 6.77083V10.4167C8.33333 10.9692 8.55283 11.4991 8.94353 11.8898C9.33423 12.2805 9.86413 12.5 10.4167 12.5C10.9692 12.5 11.4991 12.2805 11.8898 11.8898C12.2805 11.4991 12.5 10.9692 12.5 10.4167V6.77083C12.5 6.2183 12.2805 5.68839 11.8898 5.29769C11.4991 4.90699 10.9692 4.6875 10.4167 4.6875Z" fill="#092F56"/>
</svg>
