<svg width="35" height="35" viewBox="0 0 35 35" fill="none" xmlns="http://www.w3.org/2000/svg">
<path d="M14.3349 17.5C14.3349 15.7512 15.7519 14.3331 17.5002 14.3331C19.2485 14.3331 20.6662 15.7512 20.6662 17.5C20.6662 19.2488 19.2485 20.6669 17.5002 20.6669C15.7519 20.6669 14.3349 19.2488 14.3349 17.5ZM12.6235 17.5C12.6235 20.1942 14.8068 22.3781 17.5002 22.3781C20.1936 22.3781 22.3769 20.1942 22.3769 17.5C22.3769 14.8058 20.1936 12.6219 17.5002 12.6219C14.8068 12.6219 12.6235 14.8058 12.6235 17.5ZM21.4303 12.4284C21.4302 12.6539 21.497 12.8743 21.6221 13.0619C21.7473 13.2494 21.9252 13.3956 22.1334 13.4819C22.3416 13.5683 22.5708 13.591 22.7919 13.5471C23.013 13.5032 23.2161 13.3947 23.3755 13.2353C23.535 13.076 23.6436 12.8729 23.6877 12.6518C23.7317 12.4306 23.7092 12.2014 23.6231 11.9931C23.5369 11.7847 23.3909 11.6066 23.2035 11.4813C23.0162 11.3559 22.7958 11.289 22.5704 11.2889H22.57C22.2678 11.289 21.9781 11.4091 21.7644 11.6228C21.5507 11.8365 21.4306 12.1262 21.4303 12.4284ZM13.6633 25.2328C12.7374 25.1906 12.2341 25.0363 11.8996 24.906C11.4562 24.7333 11.1398 24.5276 10.8072 24.1954C10.4746 23.8631 10.2687 23.5469 10.0968 23.1034C9.96643 22.769 9.8122 22.2654 9.7701 21.3392C9.72406 20.3378 9.71487 20.037 9.71487 17.5001C9.71487 14.9631 9.72482 14.6631 9.7701 13.6609C9.81227 12.7347 9.96765 12.2321 10.0968 11.8967C10.2694 11.4532 10.475 11.1367 10.8072 10.804C11.1394 10.4713 11.4554 10.2653 11.8996 10.0934C12.2339 9.963 12.7374 9.80872 13.6633 9.76662C14.6644 9.72056 14.9651 9.71137 17.5002 9.71137C20.0353 9.71137 20.3363 9.72132 21.3382 9.76662C22.2642 9.8088 22.7666 9.96422 23.1019 10.0934C23.5453 10.2653 23.8617 10.4717 24.1943 10.804C24.5269 11.1363 24.7321 11.4532 24.9047 11.8967C25.0351 12.2311 25.1893 12.7347 25.2314 13.6609C25.2775 14.6631 25.2866 14.9631 25.2866 17.5001C25.2866 20.037 25.2775 20.337 25.2314 21.3392C25.1892 22.2654 25.0342 22.7689 24.9047 23.1034C24.7321 23.5469 24.5265 23.8634 24.1943 24.1954C23.8621 24.5273 23.5453 24.7333 23.1019 24.906C22.7676 25.0364 22.2642 25.1907 21.3382 25.2328C20.3371 25.2788 20.0364 25.288 17.5002 25.288C14.964 25.288 14.6641 25.2788 13.6633 25.2328ZM13.5847 8.05753C12.5736 8.10359 11.8827 8.26395 11.2794 8.49879C10.6546 8.7413 10.1256 9.06666 9.59703 9.59456C9.06845 10.1225 8.74402 10.6524 8.50157 11.2774C8.2668 11.8813 8.10649 12.572 8.06045 13.5833C8.01364 14.5963 8.00293 14.9201 8.00293 17.5C8.00293 20.0799 8.01364 20.4037 8.06045 21.4167C8.10649 22.4281 8.2668 23.1187 8.50157 23.7226C8.74402 24.3472 9.06852 24.8778 9.59703 25.4054C10.1255 25.9331 10.6546 26.258 11.2794 26.5012C11.8839 26.7361 12.5736 26.8964 13.5847 26.9425C14.5978 26.9885 14.921 27 17.5002 27C20.0793 27 20.4031 26.9893 21.4157 26.9425C22.4268 26.8964 23.1172 26.7361 23.721 26.5012C24.3454 26.258 24.8748 25.9333 25.4033 25.4054C25.9319 24.8775 26.2557 24.3472 26.4988 23.7226C26.7336 23.1187 26.8946 22.428 26.9399 21.4167C26.986 20.403 26.9967 20.0799 26.9967 17.5C26.9967 14.9201 26.986 14.5963 26.9399 13.5833C26.8939 12.5719 26.7336 11.8809 26.4988 11.2774C26.2557 10.6528 25.9311 10.1233 25.4033 9.59456C24.8756 9.06582 24.3454 8.7413 23.7217 8.49879C23.1172 8.26395 22.4268 8.10283 21.4165 8.05753C20.4038 8.01148 20.0801 8 17.5009 8C14.9218 8 14.5978 8.01072 13.5847 8.05753Z" fill="#E4543C "/>
<path d="M14.3349 17.5C14.3349 15.7512 15.7519 14.3331 17.5002 14.3331C19.2485 14.3331 20.6662 15.7512 20.6662 17.5C20.6662 19.2488 19.2485 20.6669 17.5002 20.6669C15.7519 20.6669 14.3349 19.2488 14.3349 17.5ZM12.6235 17.5C12.6235 20.1942 14.8068 22.3781 17.5002 22.3781C20.1936 22.3781 22.3769 20.1942 22.3769 17.5C22.3769 14.8058 20.1936 12.6219 17.5002 12.6219C14.8068 12.6219 12.6235 14.8058 12.6235 17.5ZM21.4303 12.4284C21.4302 12.6539 21.497 12.8743 21.6221 13.0619C21.7473 13.2494 21.9252 13.3956 22.1334 13.4819C22.3416 13.5683 22.5708 13.591 22.7919 13.5471C23.013 13.5032 23.2161 13.3947 23.3755 13.2353C23.535 13.076 23.6436 12.8729 23.6877 12.6518C23.7317 12.4306 23.7092 12.2014 23.6231 11.9931C23.5369 11.7847 23.3909 11.6066 23.2035 11.4813C23.0162 11.3559 22.7958 11.289 22.5704 11.2889H22.57C22.2678 11.289 21.9781 11.4091 21.7644 11.6228C21.5507 11.8365 21.4306 12.1262 21.4303 12.4284ZM13.6633 25.2328C12.7374 25.1906 12.2341 25.0363 11.8996 24.906C11.4562 24.7333 11.1398 24.5276 10.8072 24.1954C10.4746 23.8631 10.2687 23.5469 10.0968 23.1034C9.96643 22.769 9.8122 22.2654 9.7701 21.3392C9.72406 20.3378 9.71487 20.037 9.71487 17.5001C9.71487 14.9631 9.72482 14.6631 9.7701 13.6609C9.81227 12.7347 9.96765 12.2321 10.0968 11.8967C10.2694 11.4532 10.475 11.1367 10.8072 10.804C11.1394 10.4713 11.4554 10.2653 11.8996 10.0934C12.2339 9.963 12.7374 9.80872 13.6633 9.76662C14.6644 9.72056 14.9651 9.71137 17.5002 9.71137C20.0353 9.71137 20.3363 9.72132 21.3382 9.76662C22.2642 9.8088 22.7666 9.96422 23.1019 10.0934C23.5453 10.2653 23.8617 10.4717 24.1943 10.804C24.5269 11.1363 24.7321 11.4532 24.9047 11.8967C25.0351 12.2311 25.1893 12.7347 25.2314 13.6609C25.2775 14.6631 25.2866 14.9631 25.2866 17.5001C25.2866 20.037 25.2775 20.337 25.2314 21.3392C25.1892 22.2654 25.0342 22.7689 24.9047 23.1034C24.7321 23.5469 24.5265 23.8634 24.1943 24.1954C23.8621 24.5273 23.5453 24.7333 23.1019 24.906C22.7676 25.0364 22.2642 25.1907 21.3382 25.2328C20.3371 25.2788 20.0364 25.288 17.5002 25.288C14.964 25.288 14.6641 25.2788 13.6633 25.2328ZM13.5847 8.05753C12.5736 8.10359 11.8827 8.26395 11.2794 8.49879C10.6546 8.7413 10.1256 9.06666 9.59703 9.59456C9.06845 10.1225 8.74402 10.6524 8.50157 11.2774C8.2668 11.8813 8.10649 12.572 8.06045 13.5833C8.01364 14.5963 8.00293 14.9201 8.00293 17.5C8.00293 20.0799 8.01364 20.4037 8.06045 21.4167C8.10649 22.4281 8.2668 23.1187 8.50157 23.7226C8.74402 24.3472 9.06852 24.8778 9.59703 25.4054C10.1255 25.9331 10.6546 26.258 11.2794 26.5012C11.8839 26.7361 12.5736 26.8964 13.5847 26.9425C14.5978 26.9885 14.921 27 17.5002 27C20.0793 27 20.4031 26.9893 21.4157 26.9425C22.4268 26.8964 23.1172 26.7361 23.721 26.5012C24.3454 26.258 24.8748 25.9333 25.4033 25.4054C25.9319 24.8775 26.2557 24.3472 26.4988 23.7226C26.7336 23.1187 26.8946 22.428 26.9399 21.4167C26.986 20.403 26.9967 20.0799 26.9967 17.5C26.9967 14.9201 26.986 14.5963 26.9399 13.5833C26.8939 12.5719 26.7336 11.8809 26.4988 11.2774C26.2557 10.6528 25.9311 10.1233 25.4033 9.59456C24.8756 9.06582 24.3454 8.7413 23.7217 8.49879C23.1172 8.26395 22.4268 8.10283 21.4165 8.05753C20.4038 8.01148 20.0801 8 17.5009 8C14.9218 8 14.5978 8.01072 13.5847 8.05753Z" fill="#E4543C "/>
</svg>
