<svg width="35" height="35" viewBox="0 0 35 35" fill="none" xmlns="http://www.w3.org/2000/svg">
<path fill-rule="evenodd" clip-rule="evenodd" d="M28.0492 8.56568C29.2132 8.88091 30.1281 9.80068 30.4373 10.9666C31 13.0825 31 17.5 31 17.5C31 17.5 31 21.9175 30.4373 24.0334C30.1238 25.2036 29.2089 26.1234 28.0492 26.4343C25.9445 27 17.5 27 17.5 27C17.5 27 9.05982 27 6.95084 26.4343C5.78683 26.1191 4.87194 25.1993 4.56268 24.0334C4 21.9175 4 17.5 4 17.5C4 17.5 4 13.0825 4.56268 10.9666C4.87623 9.79636 5.79112 8.87659 6.95084 8.56568C9.05982 8 17.5 8 17.5 8C17.5 8 25.9445 8 28.0492 8.56568ZM21.8167 17.5L14.8026 21.572V13.428L21.8167 17.5Z" fill="#E4543C "/>
</svg>
